<?xml version="1.0" encoding="UTF-8" standalone="no"?>
<!-- Created with Inkscape (http://www.inkscape.org/) -->

<svg
   width="1024"
   height="1024"
   viewBox="0 0 270.93333 270.93333"
   version="1.1"
   id="svg1"
   inkscape:version="1.3.2 (091e20e, 2023-11-25, custom)"
   sodipodi:docname="mysticalmoonbow.svg"
   xmlns:inkscape="http://www.inkscape.org/namespaces/inkscape"
   xmlns:sodipodi="http://sodipodi.sourceforge.net/DTD/sodipodi-0.dtd"
   xmlns="http://www.w3.org/2000/svg"
   xmlns:svg="http://www.w3.org/2000/svg">
  <sodipodi:namedview
     id="namedview1"
     pagecolor="#232323"
     bordercolor="#000000"
     borderopacity="0.25"
     inkscape:showpageshadow="true"
     inkscape:pageopacity="0.0"
     inkscape:pagecheckerboard="false"
     inkscape:deskcolor="#242424"
     inkscape:document-units="px"
     showborder="true"
     labelstyle="default"
     showguides="true"
     inkscape:lockguides="false"
     inkscape:zoom="0.5703125"
     inkscape:cx="439.23288"
     inkscape:cy="490.08219"
     inkscape:window-width="1920"
     inkscape:window-height="1001"
     inkscape:window-x="-9"
     inkscape:window-y="-9"
     inkscape:window-maximized="1"
     inkscape:current-layer="layer1" />
  <defs
     id="defs1" />
  <g
     inkscape:label="Lager 1"
     inkscape:groupmode="layer"
     id="layer1"
     style="display:inline">
    <path
       id="path1"
       style="fill:#a8f420;stroke-width:0.305823;fill-opacity:1"
       d="M 135.46726,21.93568 A 113.53116,113.53116 0 0 0 21.935084,135.46667 113.53116,113.53116 0 0 0 135.46726,248.99765 113.53116,113.53116 0 0 0 248.99825,135.46667 113.53116,113.53116 0 0 0 135.46726,21.93568 Z m -5.9e-4,14.055933 a 99.474929,99.474929 0 0 1 99.47504,99.475057 99.474929,99.474929 0 0 1 -99.47504,99.47504 99.474929,99.474929 0 0 1 -99.475057,-99.47504 99.474929,99.474929 0 0 1 99.475057,-99.475057 z m -5.70193,16.207448 a 15.569989,15.569989 0 0 0 -15.57012,15.570116 15.569989,15.569989 0 0 0 15.57012,15.570118 15.569989,15.569989 0 0 0 15.57011,-15.570118 15.569989,15.569989 0 0 0 -15.57011,-15.570116 z m -28.6178,25.947806 a 4.8908028,4.8908028 0 0 0 -4.89079,4.890785 4.8908028,4.8908028 0 0 0 4.89079,4.890787 4.8908028,4.8908028 0 0 0 4.89079,-4.890787 4.8908028,4.8908028 0 0 0 -4.89079,-4.890785 z M 90.50345,94.726439 A 21.299127,21.299127 0 0 0 69.204517,116.02597 21.299127,21.299127 0 0 0 90.50345,137.3249 21.299127,21.299127 0 0 0 111.80238,116.02597 21.299127,21.299127 0 0 0 90.50345,94.726439 Z m 66.94487,1.28542 a 4.8908028,4.8908028 0 0 0 -4.89078,4.890781 4.8908028,4.8908028 0 0 0 4.89078,4.89079 4.8908028,4.8908028 0 0 0 4.89079,-4.89079 4.8908028,4.8908028 0 0 0 -4.89079,-4.890781 z m -27.86875,7.948421 a 9.7608665,9.7608665 0 0 0 -9.76067,9.76066 9.7608665,9.7608665 0 0 0 9.76067,9.76067 9.7608665,9.7608665 0 0 0 9.76066,-9.76067 9.7608665,9.7608665 0 0 0 -9.76066,-9.76066 z m -69.885445,2.81453 a 2.8053246,2.8053246 0 0 0 -2.804974,2.80557 2.8053246,2.8053246 0 0 0 2.804974,2.80498 2.8053246,2.8053246 0 0 0 2.805572,-2.80498 2.8053246,2.8053246 0 0 0 -2.805572,-2.80557 z m 0.184569,21.37299 a 7.5687453,7.5687453 0 0 0 -7.569129,7.56914 7.5687453,7.5687453 0 0 0 7.569129,7.56853 7.5687453,7.5687453 0 0 0 7.568534,-7.56853 7.5687453,7.5687453 0 0 0 -7.568534,-7.56914 z m 76.435566,12.25027 a 4.8908028,4.8908028 0 0 0 -4.89079,4.89079 4.8908028,4.8908028 0 0 0 4.89079,4.89077 4.8908028,4.8908028 0 0 0 4.89078,-4.89077 4.8908028,4.8908028 0 0 0 -4.89078,-4.89079 z m -51.837684,10.50909 a 9.5149936,9.5149936 0 0 0 -9.515171,9.51518 9.5149936,9.5149936 0 0 0 9.515171,9.51516 9.5149936,9.5149936 0 0 0 9.514574,-9.51516 9.5149936,9.5149936 0 0 0 -9.514574,-9.51518 z" />
  </g>
</svg>
